<mxfile host="app.diagrams.net" agent="Mozilla/5.0 (Windows NT 10.0; Win64; x64) AppleWebKit/537.36 (KHTML, like Gecko) Chrome/135.0.0.0 Safari/537.36 Edg/135.0.0.0" version="26.2.13">
  <diagram name="Page-1" id="h0mrNaZbizUFh99x8F81">
    <mxGraphModel dx="1771" dy="1811" grid="1" gridSize="10" guides="1" tooltips="1" connect="1" arrows="1" fold="1" page="1" pageScale="1" pageWidth="850" pageHeight="1100" math="0" shadow="0">
      <root>
        <mxCell id="0" />
        <mxCell id="1" parent="0" />
        <mxCell id="leR7A-DxIw6ru7NyNXbQ-16" style="edgeStyle=orthogonalEdgeStyle;rounded=0;orthogonalLoop=1;jettySize=auto;html=1;exitX=1;exitY=0.5;exitDx=0;exitDy=0;" edge="1" parent="1" source="leR7A-DxIw6ru7NyNXbQ-1" target="leR7A-DxIw6ru7NyNXbQ-15">
          <mxGeometry relative="1" as="geometry" />
        </mxCell>
        <mxCell id="leR7A-DxIw6ru7NyNXbQ-1" value="iOS" style="rounded=0;whiteSpace=wrap;html=1;" vertex="1" parent="1">
          <mxGeometry x="160" y="320" width="120" height="60" as="geometry" />
        </mxCell>
        <mxCell id="leR7A-DxIw6ru7NyNXbQ-17" style="edgeStyle=orthogonalEdgeStyle;rounded=0;orthogonalLoop=1;jettySize=auto;html=1;exitX=1;exitY=0.5;exitDx=0;exitDy=0;" edge="1" parent="1" source="leR7A-DxIw6ru7NyNXbQ-2" target="leR7A-DxIw6ru7NyNXbQ-15">
          <mxGeometry relative="1" as="geometry" />
        </mxCell>
        <mxCell id="leR7A-DxIw6ru7NyNXbQ-2" value="Android" style="rounded=0;whiteSpace=wrap;html=1;" vertex="1" parent="1">
          <mxGeometry x="160" y="420" width="120" height="60" as="geometry" />
        </mxCell>
        <mxCell id="leR7A-DxIw6ru7NyNXbQ-18" style="edgeStyle=orthogonalEdgeStyle;rounded=0;orthogonalLoop=1;jettySize=auto;html=1;exitX=1;exitY=0.5;exitDx=0;exitDy=0;" edge="1" parent="1" source="leR7A-DxIw6ru7NyNXbQ-3" target="leR7A-DxIw6ru7NyNXbQ-15">
          <mxGeometry relative="1" as="geometry" />
        </mxCell>
        <mxCell id="leR7A-DxIw6ru7NyNXbQ-3" value="Web" style="rounded=0;whiteSpace=wrap;html=1;" vertex="1" parent="1">
          <mxGeometry x="160" y="520" width="120" height="60" as="geometry" />
        </mxCell>
        <mxCell id="leR7A-DxIw6ru7NyNXbQ-8" style="edgeStyle=orthogonalEdgeStyle;rounded=0;orthogonalLoop=1;jettySize=auto;html=1;exitX=1;exitY=0.5;exitDx=0;exitDy=0;" edge="1" parent="1" source="leR7A-DxIw6ru7NyNXbQ-4" target="leR7A-DxIw6ru7NyNXbQ-7">
          <mxGeometry relative="1" as="geometry" />
        </mxCell>
        <mxCell id="leR7A-DxIw6ru7NyNXbQ-10" style="edgeStyle=orthogonalEdgeStyle;rounded=0;orthogonalLoop=1;jettySize=auto;html=1;exitX=1;exitY=0.25;exitDx=0;exitDy=0;" edge="1" parent="1" source="leR7A-DxIw6ru7NyNXbQ-4" target="leR7A-DxIw6ru7NyNXbQ-9">
          <mxGeometry relative="1" as="geometry" />
        </mxCell>
        <mxCell id="leR7A-DxIw6ru7NyNXbQ-12" style="edgeStyle=orthogonalEdgeStyle;rounded=0;orthogonalLoop=1;jettySize=auto;html=1;exitX=1;exitY=0.75;exitDx=0;exitDy=0;" edge="1" parent="1" source="leR7A-DxIw6ru7NyNXbQ-4" target="leR7A-DxIw6ru7NyNXbQ-11">
          <mxGeometry relative="1" as="geometry" />
        </mxCell>
        <mxCell id="leR7A-DxIw6ru7NyNXbQ-4" value="OUR SYSTEM" style="rounded=0;whiteSpace=wrap;html=1;" vertex="1" parent="1">
          <mxGeometry x="380" y="-80" width="140" height="140" as="geometry" />
        </mxCell>
        <mxCell id="leR7A-DxIw6ru7NyNXbQ-6" style="edgeStyle=orthogonalEdgeStyle;rounded=0;orthogonalLoop=1;jettySize=auto;html=1;exitX=0.5;exitY=0.5;exitDx=0;exitDy=0;exitPerimeter=0;" edge="1" parent="1" source="leR7A-DxIw6ru7NyNXbQ-5" target="leR7A-DxIw6ru7NyNXbQ-4">
          <mxGeometry relative="1" as="geometry" />
        </mxCell>
        <mxCell id="leR7A-DxIw6ru7NyNXbQ-5" value="Eater" style="shape=umlActor;verticalLabelPosition=bottom;verticalAlign=top;html=1;outlineConnect=0;" vertex="1" parent="1">
          <mxGeometry x="190" y="-95" width="30" height="60" as="geometry" />
        </mxCell>
        <mxCell id="leR7A-DxIw6ru7NyNXbQ-7" value="Restaraunts" style="rounded=0;whiteSpace=wrap;html=1;" vertex="1" parent="1">
          <mxGeometry x="630" y="-40" width="120" height="60" as="geometry" />
        </mxCell>
        <mxCell id="leR7A-DxIw6ru7NyNXbQ-9" value="Payment" style="rounded=0;whiteSpace=wrap;html=1;" vertex="1" parent="1">
          <mxGeometry x="630" y="-120" width="120" height="60" as="geometry" />
        </mxCell>
        <mxCell id="leR7A-DxIw6ru7NyNXbQ-11" value="Maps" style="rounded=0;whiteSpace=wrap;html=1;" vertex="1" parent="1">
          <mxGeometry x="630" y="50" width="120" height="60" as="geometry" />
        </mxCell>
        <mxCell id="leR7A-DxIw6ru7NyNXbQ-14" style="edgeStyle=orthogonalEdgeStyle;rounded=0;orthogonalLoop=1;jettySize=auto;html=1;exitX=0.5;exitY=0.5;exitDx=0;exitDy=0;exitPerimeter=0;entryX=0;entryY=0.5;entryDx=0;entryDy=0;" edge="1" parent="1" source="leR7A-DxIw6ru7NyNXbQ-13" target="leR7A-DxIw6ru7NyNXbQ-4">
          <mxGeometry relative="1" as="geometry" />
        </mxCell>
        <mxCell id="leR7A-DxIw6ru7NyNXbQ-13" value="Courier" style="shape=umlActor;verticalLabelPosition=bottom;verticalAlign=top;html=1;outlineConnect=0;" vertex="1" parent="1">
          <mxGeometry x="190" y="15" width="30" height="60" as="geometry" />
        </mxCell>
        <mxCell id="leR7A-DxIw6ru7NyNXbQ-15" value="Api Gateway" style="rounded=0;whiteSpace=wrap;html=1;" vertex="1" parent="1">
          <mxGeometry x="390" y="420" width="120" height="60" as="geometry" />
        </mxCell>
        <mxCell id="leR7A-DxIw6ru7NyNXbQ-20" value="Eater service" style="rounded=0;whiteSpace=wrap;html=1;" vertex="1" parent="1">
          <mxGeometry x="620" y="330" width="120" height="60" as="geometry" />
        </mxCell>
        <mxCell id="leR7A-DxIw6ru7NyNXbQ-21" value="Courier service" style="rounded=0;whiteSpace=wrap;html=1;" vertex="1" parent="1">
          <mxGeometry x="620" y="235" width="120" height="60" as="geometry" />
        </mxCell>
        <mxCell id="leR7A-DxIw6ru7NyNXbQ-22" value="&lt;font style=&quot;font-size: 80px;&quot;&gt;C1&lt;/font&gt;" style="text;html=1;align=center;verticalAlign=middle;whiteSpace=wrap;rounded=0;" vertex="1" parent="1">
          <mxGeometry x="330" y="-250" width="240" height="130" as="geometry" />
        </mxCell>
        <mxCell id="leR7A-DxIw6ru7NyNXbQ-23" value="&lt;font style=&quot;font-size: 80px;&quot;&gt;C2&lt;/font&gt;" style="text;html=1;align=center;verticalAlign=middle;whiteSpace=wrap;rounded=0;" vertex="1" parent="1">
          <mxGeometry x="340" y="150" width="240" height="130" as="geometry" />
        </mxCell>
        <mxCell id="leR7A-DxIw6ru7NyNXbQ-46" style="edgeStyle=orthogonalEdgeStyle;rounded=0;orthogonalLoop=1;jettySize=auto;html=1;exitX=1;exitY=0.5;exitDx=0;exitDy=0;entryX=0;entryY=0.5;entryDx=0;entryDy=0;startArrow=classic;startFill=1;" edge="1" parent="1" source="leR7A-DxIw6ru7NyNXbQ-24" target="leR7A-DxIw6ru7NyNXbQ-45">
          <mxGeometry relative="1" as="geometry" />
        </mxCell>
        <mxCell id="leR7A-DxIw6ru7NyNXbQ-50" style="edgeStyle=orthogonalEdgeStyle;rounded=0;orthogonalLoop=1;jettySize=auto;html=1;exitX=0.5;exitY=1;exitDx=0;exitDy=0;" edge="1" parent="1" source="leR7A-DxIw6ru7NyNXbQ-24" target="leR7A-DxIw6ru7NyNXbQ-49">
          <mxGeometry relative="1" as="geometry" />
        </mxCell>
        <mxCell id="leR7A-DxIw6ru7NyNXbQ-53" style="edgeStyle=orthogonalEdgeStyle;rounded=0;orthogonalLoop=1;jettySize=auto;html=1;exitX=0;exitY=0.5;exitDx=0;exitDy=0;" edge="1" parent="1" source="leR7A-DxIw6ru7NyNXbQ-24" target="leR7A-DxIw6ru7NyNXbQ-25">
          <mxGeometry relative="1" as="geometry" />
        </mxCell>
        <mxCell id="leR7A-DxIw6ru7NyNXbQ-24" value="Order service" style="rounded=0;whiteSpace=wrap;html=1;" vertex="1" parent="1">
          <mxGeometry x="820" y="443" width="120" height="60" as="geometry" />
        </mxCell>
        <mxCell id="leR7A-DxIw6ru7NyNXbQ-56" style="edgeStyle=orthogonalEdgeStyle;rounded=0;orthogonalLoop=1;jettySize=auto;html=1;exitX=0.5;exitY=1;exitDx=0;exitDy=0;" edge="1" parent="1" source="leR7A-DxIw6ru7NyNXbQ-25" target="leR7A-DxIw6ru7NyNXbQ-55">
          <mxGeometry relative="1" as="geometry" />
        </mxCell>
        <mxCell id="leR7A-DxIw6ru7NyNXbQ-25" value="Notification service" style="rounded=0;whiteSpace=wrap;html=1;" vertex="1" parent="1">
          <mxGeometry x="700" y="550" width="120" height="60" as="geometry" />
        </mxCell>
        <mxCell id="leR7A-DxIw6ru7NyNXbQ-51" style="edgeStyle=orthogonalEdgeStyle;rounded=0;orthogonalLoop=1;jettySize=auto;html=1;exitX=0.5;exitY=0;exitDx=0;exitDy=0;" edge="1" parent="1" source="leR7A-DxIw6ru7NyNXbQ-27" target="leR7A-DxIw6ru7NyNXbQ-31">
          <mxGeometry relative="1" as="geometry" />
        </mxCell>
        <mxCell id="leR7A-DxIw6ru7NyNXbQ-27" value="Menu service" style="rounded=0;whiteSpace=wrap;html=1;" vertex="1" parent="1">
          <mxGeometry x="820" y="352.5" width="120" height="60" as="geometry" />
        </mxCell>
        <mxCell id="leR7A-DxIw6ru7NyNXbQ-28" value="Restaraunt API 1" style="rounded=0;whiteSpace=wrap;html=1;fillColor=#ffe6cc;strokeColor=#d79b00;" vertex="1" parent="1">
          <mxGeometry x="1220" y="303" width="120" height="60" as="geometry" />
        </mxCell>
        <mxCell id="leR7A-DxIw6ru7NyNXbQ-29" value="Restaraunt API 2" style="rounded=0;whiteSpace=wrap;html=1;fillColor=#ffe6cc;strokeColor=#d79b00;" vertex="1" parent="1">
          <mxGeometry x="1220" y="400" width="120" height="60" as="geometry" />
        </mxCell>
        <mxCell id="leR7A-DxIw6ru7NyNXbQ-30" value="Restaraunt API 3" style="rounded=0;whiteSpace=wrap;html=1;fillColor=#ffe6cc;strokeColor=#d79b00;" vertex="1" parent="1">
          <mxGeometry x="1220" y="510.5" width="120" height="60" as="geometry" />
        </mxCell>
        <mxCell id="leR7A-DxIw6ru7NyNXbQ-31" value="Menu storage" style="shape=cylinder3;whiteSpace=wrap;html=1;boundedLbl=1;backgroundOutline=1;size=15;" vertex="1" parent="1">
          <mxGeometry x="850" y="250" width="60" height="80" as="geometry" />
        </mxCell>
        <mxCell id="leR7A-DxIw6ru7NyNXbQ-36" style="edgeStyle=orthogonalEdgeStyle;rounded=0;orthogonalLoop=1;jettySize=auto;html=1;exitX=1;exitY=0.5;exitDx=0;exitDy=0;" edge="1" parent="1" source="leR7A-DxIw6ru7NyNXbQ-32" target="leR7A-DxIw6ru7NyNXbQ-28">
          <mxGeometry relative="1" as="geometry" />
        </mxCell>
        <mxCell id="leR7A-DxIw6ru7NyNXbQ-32" value="Adapter 1" style="rounded=0;whiteSpace=wrap;html=1;" vertex="1" parent="1">
          <mxGeometry x="1040" y="303" width="120" height="60" as="geometry" />
        </mxCell>
        <mxCell id="leR7A-DxIw6ru7NyNXbQ-37" style="edgeStyle=orthogonalEdgeStyle;rounded=0;orthogonalLoop=1;jettySize=auto;html=1;exitX=1;exitY=0.5;exitDx=0;exitDy=0;" edge="1" parent="1" source="leR7A-DxIw6ru7NyNXbQ-33" target="leR7A-DxIw6ru7NyNXbQ-29">
          <mxGeometry relative="1" as="geometry" />
        </mxCell>
        <mxCell id="leR7A-DxIw6ru7NyNXbQ-33" value="Adapter 2" style="rounded=0;whiteSpace=wrap;html=1;" vertex="1" parent="1">
          <mxGeometry x="1040" y="400" width="120" height="60" as="geometry" />
        </mxCell>
        <mxCell id="leR7A-DxIw6ru7NyNXbQ-38" style="edgeStyle=orthogonalEdgeStyle;rounded=0;orthogonalLoop=1;jettySize=auto;html=1;exitX=1;exitY=0.5;exitDx=0;exitDy=0;" edge="1" parent="1" source="leR7A-DxIw6ru7NyNXbQ-34" target="leR7A-DxIw6ru7NyNXbQ-30">
          <mxGeometry relative="1" as="geometry" />
        </mxCell>
        <mxCell id="leR7A-DxIw6ru7NyNXbQ-34" value="Adapter 3" style="rounded=0;whiteSpace=wrap;html=1;" vertex="1" parent="1">
          <mxGeometry x="1040" y="510" width="120" height="60" as="geometry" />
        </mxCell>
        <mxCell id="leR7A-DxIw6ru7NyNXbQ-35" value="3rd party" style="text;html=1;align=center;verticalAlign=middle;whiteSpace=wrap;rounded=0;fillColor=#ffe6cc;strokeColor=#d79b00;" vertex="1" parent="1">
          <mxGeometry x="1250" y="220" width="60" height="30" as="geometry" />
        </mxCell>
        <mxCell id="leR7A-DxIw6ru7NyNXbQ-48" style="edgeStyle=orthogonalEdgeStyle;rounded=0;orthogonalLoop=1;jettySize=auto;html=1;exitX=0;exitY=0.25;exitDx=0;exitDy=0;entryX=1;entryY=0.5;entryDx=0;entryDy=0;" edge="1" parent="1" source="leR7A-DxIw6ru7NyNXbQ-45" target="leR7A-DxIw6ru7NyNXbQ-27">
          <mxGeometry relative="1" as="geometry" />
        </mxCell>
        <mxCell id="leR7A-DxIw6ru7NyNXbQ-45" value="" style="shape=partialRectangle;whiteSpace=wrap;html=1;right=0;top=0;bottom=0;fillColor=none;routingCenterX=-0.5;" vertex="1" parent="1">
          <mxGeometry x="985" y="292.5" width="395" height="507.5" as="geometry" />
        </mxCell>
        <mxCell id="leR7A-DxIw6ru7NyNXbQ-49" value="Orders storage" style="shape=cylinder3;whiteSpace=wrap;html=1;boundedLbl=1;backgroundOutline=1;size=15;" vertex="1" parent="1">
          <mxGeometry x="850" y="540" width="60" height="80" as="geometry" />
        </mxCell>
        <mxCell id="leR7A-DxIw6ru7NyNXbQ-55" value="Notification Manager" style="rounded=0;whiteSpace=wrap;html=1;fillColor=#ffe6cc;strokeColor=#d79b00;" vertex="1" parent="1">
          <mxGeometry x="700" y="690" width="120" height="60" as="geometry" />
        </mxCell>
        <mxCell id="leR7A-DxIw6ru7NyNXbQ-57" value="Generic adapter" style="rounded=0;whiteSpace=wrap;html=1;" vertex="1" parent="1">
          <mxGeometry x="1040" y="620" width="120" height="60" as="geometry" />
        </mxCell>
        <mxCell id="leR7A-DxIw6ru7NyNXbQ-69" style="edgeStyle=orthogonalEdgeStyle;rounded=0;orthogonalLoop=1;jettySize=auto;html=1;exitX=0.5;exitY=0.5;exitDx=0;exitDy=0;exitPerimeter=0;entryX=0;entryY=0.5;entryDx=0;entryDy=0;" edge="1" parent="1" source="leR7A-DxIw6ru7NyNXbQ-59" target="leR7A-DxIw6ru7NyNXbQ-1">
          <mxGeometry relative="1" as="geometry" />
        </mxCell>
        <mxCell id="leR7A-DxIw6ru7NyNXbQ-70" style="edgeStyle=orthogonalEdgeStyle;rounded=0;orthogonalLoop=1;jettySize=auto;html=1;exitX=0.5;exitY=0.5;exitDx=0;exitDy=0;exitPerimeter=0;entryX=0;entryY=0.5;entryDx=0;entryDy=0;" edge="1" parent="1" source="leR7A-DxIw6ru7NyNXbQ-59" target="leR7A-DxIw6ru7NyNXbQ-2">
          <mxGeometry relative="1" as="geometry" />
        </mxCell>
        <mxCell id="leR7A-DxIw6ru7NyNXbQ-71" style="edgeStyle=orthogonalEdgeStyle;rounded=0;orthogonalLoop=1;jettySize=auto;html=1;exitX=0.5;exitY=0.5;exitDx=0;exitDy=0;exitPerimeter=0;entryX=0;entryY=0.5;entryDx=0;entryDy=0;" edge="1" parent="1" source="leR7A-DxIw6ru7NyNXbQ-59" target="leR7A-DxIw6ru7NyNXbQ-3">
          <mxGeometry relative="1" as="geometry" />
        </mxCell>
        <mxCell id="leR7A-DxIw6ru7NyNXbQ-59" value="Eater" style="shape=umlActor;verticalLabelPosition=bottom;verticalAlign=top;html=1;outlineConnect=0;" vertex="1" parent="1">
          <mxGeometry x="20" y="220" width="30" height="60" as="geometry" />
        </mxCell>
        <mxCell id="leR7A-DxIw6ru7NyNXbQ-66" style="edgeStyle=orthogonalEdgeStyle;rounded=0;orthogonalLoop=1;jettySize=auto;html=1;exitX=0.5;exitY=0.5;exitDx=0;exitDy=0;exitPerimeter=0;entryX=0;entryY=0.5;entryDx=0;entryDy=0;" edge="1" parent="1" source="leR7A-DxIw6ru7NyNXbQ-60" target="leR7A-DxIw6ru7NyNXbQ-2">
          <mxGeometry relative="1" as="geometry" />
        </mxCell>
        <mxCell id="leR7A-DxIw6ru7NyNXbQ-67" style="edgeStyle=orthogonalEdgeStyle;rounded=0;orthogonalLoop=1;jettySize=auto;html=1;exitX=0.5;exitY=0.5;exitDx=0;exitDy=0;exitPerimeter=0;entryX=0;entryY=0.5;entryDx=0;entryDy=0;" edge="1" parent="1" source="leR7A-DxIw6ru7NyNXbQ-60" target="leR7A-DxIw6ru7NyNXbQ-1">
          <mxGeometry relative="1" as="geometry" />
        </mxCell>
        <mxCell id="leR7A-DxIw6ru7NyNXbQ-60" value="Courier" style="shape=umlActor;verticalLabelPosition=bottom;verticalAlign=top;html=1;outlineConnect=0;" vertex="1" parent="1">
          <mxGeometry x="20" y="337" width="30" height="60" as="geometry" />
        </mxCell>
        <mxCell id="leR7A-DxIw6ru7NyNXbQ-64" style="edgeStyle=orthogonalEdgeStyle;rounded=0;orthogonalLoop=1;jettySize=auto;html=1;exitX=0.5;exitY=0.5;exitDx=0;exitDy=0;exitPerimeter=0;entryX=0;entryY=0.5;entryDx=0;entryDy=0;" edge="1" parent="1" source="leR7A-DxIw6ru7NyNXbQ-61" target="leR7A-DxIw6ru7NyNXbQ-3">
          <mxGeometry relative="1" as="geometry" />
        </mxCell>
        <mxCell id="leR7A-DxIw6ru7NyNXbQ-61" value="Restrauntor" style="shape=umlActor;verticalLabelPosition=bottom;verticalAlign=top;html=1;outlineConnect=0;" vertex="1" parent="1">
          <mxGeometry x="20" y="457" width="30" height="60" as="geometry" />
        </mxCell>
        <mxCell id="leR7A-DxIw6ru7NyNXbQ-65" style="edgeStyle=orthogonalEdgeStyle;rounded=0;orthogonalLoop=1;jettySize=auto;html=1;exitX=0.5;exitY=0.5;exitDx=0;exitDy=0;exitPerimeter=0;entryX=0;entryY=0.5;entryDx=0;entryDy=0;" edge="1" parent="1" source="leR7A-DxIw6ru7NyNXbQ-63" target="leR7A-DxIw6ru7NyNXbQ-3">
          <mxGeometry relative="1" as="geometry" />
        </mxCell>
        <mxCell id="leR7A-DxIw6ru7NyNXbQ-63" value="Support (Admin)" style="shape=umlActor;verticalLabelPosition=bottom;verticalAlign=top;html=1;outlineConnect=0;" vertex="1" parent="1">
          <mxGeometry x="20" y="579.5" width="30" height="60" as="geometry" />
        </mxCell>
        <mxCell id="leR7A-DxIw6ru7NyNXbQ-74" style="edgeStyle=orthogonalEdgeStyle;rounded=0;orthogonalLoop=1;jettySize=auto;html=1;exitX=1;exitY=0.5;exitDx=0;exitDy=0;" edge="1" parent="1" source="leR7A-DxIw6ru7NyNXbQ-72" target="leR7A-DxIw6ru7NyNXbQ-24">
          <mxGeometry relative="1" as="geometry" />
        </mxCell>
        <mxCell id="leR7A-DxIw6ru7NyNXbQ-75" style="edgeStyle=orthogonalEdgeStyle;rounded=0;orthogonalLoop=1;jettySize=auto;html=1;exitX=0;exitY=0.5;exitDx=0;exitDy=0;" edge="1" parent="1" source="leR7A-DxIw6ru7NyNXbQ-72" target="leR7A-DxIw6ru7NyNXbQ-15">
          <mxGeometry relative="1" as="geometry" />
        </mxCell>
        <mxCell id="leR7A-DxIw6ru7NyNXbQ-72" value="Location Service" style="rounded=0;whiteSpace=wrap;html=1;" vertex="1" parent="1">
          <mxGeometry x="500" y="740" width="120" height="60" as="geometry" />
        </mxCell>
      </root>
    </mxGraphModel>
  </diagram>
</mxfile>
